<svg width="263" height="40" viewBox="0 0 263 40" fill="none" xmlns="http://www.w3.org/2000/svg">
<circle cx="17.4929" cy="20" r="15.3063" stroke="white" stroke-width="4.37322"/>
<circle cx="35.0733" cy="20.0867" r="12.1576" fill="url(#paint0_linear_2_500)"/>
<path d="M17.4491 15.6701L13.1196 19.9996L17.4491 24.3291" stroke="white" stroke-width="4.37322" stroke-linecap="square"/>
<path d="M33.9872 24.3305L38.3167 20.001L33.9872 15.6715" stroke="white" stroke-width="4.37322" stroke-linecap="square"/>
<path d="M59.4127 13.2533C60.8849 13.2533 62.1714 13.5385 63.2721 14.1088C64.3862 14.6658 65.2416 15.4748 65.8385 16.5358C66.4485 17.5836 66.7536 18.8104 66.7536 20.2162C66.7536 21.622 66.4485 22.8422 65.8385 23.8767C65.2416 24.9112 64.3862 25.7069 63.2721 26.2639C62.1714 26.8077 60.8849 27.0796 59.4127 27.0796H54.8968V13.2533H59.4127ZM59.4127 25.2295C61.0308 25.2295 62.2708 24.7918 63.1329 23.9165C63.995 23.0411 64.426 21.8077 64.426 20.2162C64.426 18.6114 63.995 17.3581 63.1329 16.4563C62.2708 15.5544 61.0308 15.1035 59.4127 15.1035H57.1647V25.2295H59.4127ZM68.2453 21.5491C68.2453 20.4483 68.4708 19.4735 68.9217 18.6247C69.3859 17.7759 70.0092 17.1194 70.7917 16.6552C71.5875 16.1777 72.4628 15.939 73.4177 15.939C74.2798 15.939 75.0291 16.1114 75.6657 16.4563C76.3156 16.7878 76.8328 17.2056 77.2174 17.7096V16.1181H79.5052V27.0796H77.2174V25.4483C76.8328 25.9655 76.309 26.3966 75.6458 26.7414C74.9827 27.0862 74.2267 27.2586 73.3779 27.2586C72.4363 27.2586 71.5742 27.0199 70.7917 26.5425C70.0092 26.0517 69.3859 25.3753 68.9217 24.5133C68.4708 23.6379 68.2453 22.6499 68.2453 21.5491ZM77.2174 21.5889C77.2174 20.8329 77.0583 20.1764 76.74 19.6194C76.435 19.0624 76.0304 18.638 75.5265 18.3462C75.0225 18.0544 74.4787 17.9085 73.8952 17.9085C73.3116 17.9085 72.7678 18.0544 72.2639 18.3462C71.7599 18.6247 71.3488 19.0425 71.0305 19.5995C70.7254 20.1433 70.5729 20.7931 70.5729 21.5491C70.5729 22.3051 70.7254 22.9682 71.0305 23.5385C71.3488 24.1088 71.7599 24.5464 72.2639 24.8515C72.7811 25.1433 73.3249 25.2891 73.8952 25.2891C74.4787 25.2891 75.0225 25.1433 75.5265 24.8515C76.0304 24.5597 76.435 24.1353 76.74 23.5783C77.0583 23.008 77.2174 22.3448 77.2174 21.5889ZM86.4628 27.2586C85.6007 27.2586 84.8249 27.1061 84.1352 26.8011C83.4588 26.4828 82.9217 26.0584 82.5238 25.5279C82.126 24.9841 81.9138 24.3807 81.8872 23.7175H84.2347C84.2745 24.1817 84.4933 24.573 84.8912 24.8913C85.3023 25.1963 85.813 25.3488 86.423 25.3488C87.0596 25.3488 87.5503 25.2295 87.8952 24.9907C88.2533 24.7387 88.4323 24.4204 88.4323 24.0358C88.4323 23.6247 88.2334 23.3196 87.8355 23.1207C87.4509 22.9218 86.8342 22.7029 85.9854 22.4642C85.1631 22.2387 84.4933 22.0199 83.9761 21.8077C83.4588 21.5955 83.0079 21.2706 82.6233 20.8329C82.2519 20.3952 82.0663 19.8183 82.0663 19.1021C82.0663 18.5186 82.2387 17.9881 82.5835 17.5106C82.9283 17.0199 83.4191 16.6353 84.0557 16.3568C84.7055 16.0783 85.4482 15.939 86.2838 15.939C87.5305 15.939 88.5318 16.2573 89.2877 16.8939C90.057 17.5173 90.4681 18.3727 90.5212 19.4602H88.2533C88.2135 18.9695 88.0145 18.5783 87.6565 18.2865C87.2984 17.9947 86.8143 17.8488 86.2042 17.8488C85.6074 17.8488 85.1498 17.9616 84.8315 18.187C84.5132 18.4125 84.3541 18.7109 84.3541 19.0823C84.3541 19.374 84.4602 19.6194 84.6724 19.8183C84.8846 20.0173 85.1432 20.1764 85.4482 20.2958C85.7533 20.4019 86.2042 20.5411 86.801 20.7135C87.5968 20.9257 88.2466 21.1446 88.7506 21.37C89.2679 21.5822 89.7122 21.9005 90.0835 22.325C90.4549 22.7494 90.6472 23.313 90.6604 24.0159C90.6604 24.6393 90.488 25.1963 90.1432 25.687C89.7984 26.1777 89.3076 26.5623 88.671 26.8409C88.0477 27.1194 87.3116 27.2586 86.4628 27.2586ZM95.7568 17.9682V24.0358C95.7568 24.447 95.8497 24.7454 96.0353 24.9311C96.2343 25.1035 96.5658 25.1897 97.03 25.1897H98.4226V27.0796H96.6322C95.6109 27.0796 94.8285 26.8409 94.2847 26.3634C93.7409 25.886 93.469 25.1101 93.469 24.0358V17.9682H92.1759V16.1181H93.469V13.3926H95.7568V16.1181H98.4226V17.9682H95.7568ZM110.44 16.1181V27.0796H108.172V25.7865C107.814 26.2374 107.343 26.5955 106.76 26.8608C106.189 27.1127 105.579 27.2387 104.929 27.2387C104.067 27.2387 103.291 27.0597 102.602 26.7016C101.925 26.3435 101.388 25.813 100.99 25.1101C100.606 24.4072 100.413 23.5584 100.413 22.5637V16.1181H102.661V22.2255C102.661 23.2069 102.907 23.9629 103.397 24.4934C103.888 25.0106 104.558 25.2692 105.407 25.2692C106.256 25.2692 106.925 25.0106 107.416 24.4934C107.92 23.9629 108.172 23.2069 108.172 22.2255V16.1181H110.44ZM115.7 17.7096C116.032 17.1525 116.469 16.7215 117.013 16.4165C117.57 16.0982 118.227 15.939 118.983 15.939V18.2865H118.406C117.517 18.2865 116.841 18.512 116.377 18.9629C115.926 19.4138 115.7 20.1963 115.7 21.3104V27.0796H113.432V16.1181H115.7V17.7096ZM120.311 21.5889C120.311 20.4616 120.537 19.4735 120.988 18.6247C121.452 17.7626 122.089 17.0995 122.898 16.6353C123.707 16.1711 124.635 15.939 125.683 15.939C127.009 15.939 128.103 16.2573 128.965 16.8939C129.84 17.5173 130.431 18.4125 130.736 19.5796H128.289C128.09 19.0358 127.772 18.6114 127.334 18.3064C126.896 18.0013 126.346 17.8488 125.683 17.8488C124.754 17.8488 124.012 18.1804 123.455 18.8435C122.911 19.4934 122.639 20.4085 122.639 21.5889C122.639 22.7692 122.911 23.691 123.455 24.3541C124.012 25.0173 124.754 25.3488 125.683 25.3488C126.996 25.3488 127.864 24.7719 128.289 23.6181H130.736C130.417 24.7321 129.821 25.6207 128.945 26.2838C128.07 26.9337 126.982 27.2586 125.683 27.2586C124.635 27.2586 123.707 27.0265 122.898 26.5623C122.089 26.0849 121.452 25.4218 120.988 24.573C120.537 23.7109 120.311 22.7162 120.311 21.5889ZM138.666 15.939C139.501 15.939 140.244 16.1181 140.894 16.4762C141.557 16.8342 142.074 17.3647 142.445 18.0677C142.83 18.7706 143.022 19.6194 143.022 20.6141V27.0796H140.774V20.9523C140.774 19.9708 140.529 19.2215 140.038 18.7043C139.548 18.1738 138.878 17.9085 138.029 17.9085C137.18 17.9085 136.504 18.1738 136 18.7043C135.509 19.2215 135.264 19.9708 135.264 20.9523V27.0796H132.996V12.3581H135.264V17.3913C135.648 16.9271 136.132 16.569 136.716 16.317C137.313 16.065 137.963 15.939 138.666 15.939ZM147.069 14.6658C146.658 14.6658 146.313 14.5266 146.035 14.248C145.756 13.9695 145.617 13.6247 145.617 13.2136C145.617 12.8024 145.756 12.4576 146.035 12.1791C146.313 11.9006 146.658 11.7613 147.069 11.7613C147.467 11.7613 147.805 11.9006 148.084 12.1791C148.362 12.4576 148.501 12.8024 148.501 13.2136C148.501 13.6247 148.362 13.9695 148.084 14.248C147.805 14.5266 147.467 14.6658 147.069 14.6658ZM148.183 16.1181V27.0796H145.915V16.1181H148.183ZM153.429 12.3581V27.0796H151.161V12.3581H153.429ZM155.65 21.5491C155.65 20.4483 155.876 19.4735 156.327 18.6247C156.791 17.7759 157.414 17.1194 158.197 16.6552C158.992 16.1777 159.868 15.939 160.823 15.939C161.685 15.939 162.434 16.1114 163.071 16.4563C163.72 16.7878 164.238 17.2056 164.622 17.7096V16.1181H166.91V27.0796H164.622V25.4483C164.238 25.9655 163.714 26.3966 163.051 26.7414C162.388 27.0862 161.632 27.2586 160.783 27.2586C159.841 27.2586 158.979 27.0199 158.197 26.5425C157.414 26.0517 156.791 25.3753 156.327 24.5133C155.876 23.6379 155.65 22.6499 155.65 21.5491ZM164.622 21.5889C164.622 20.8329 164.463 20.1764 164.145 19.6194C163.84 19.0624 163.435 18.638 162.931 18.3462C162.427 18.0544 161.884 17.9085 161.3 17.9085C160.716 17.9085 160.173 18.0544 159.669 18.3462C159.165 18.6247 158.754 19.0425 158.435 19.5995C158.13 20.1433 157.978 20.7931 157.978 21.5491C157.978 22.3051 158.13 22.9682 158.435 23.5385C158.754 24.1088 159.165 24.5464 159.669 24.8515C160.186 25.1433 160.73 25.2891 161.3 25.2891C161.884 25.2891 162.427 25.1433 162.931 24.8515C163.435 24.5597 163.84 24.1353 164.145 23.5783C164.463 23.008 164.622 22.3448 164.622 21.5889ZM172.157 17.7096C172.488 17.1525 172.926 16.7215 173.47 16.4165C174.027 16.0982 174.683 15.939 175.439 15.939V18.2865H174.862C173.974 18.2865 173.297 18.512 172.833 18.9629C172.382 19.4138 172.157 20.1963 172.157 21.3104V27.0796H169.889V16.1181H172.157V17.7096ZM178.439 27.2188C178.028 27.2188 177.683 27.0796 177.405 26.8011C177.126 26.5226 176.987 26.1777 176.987 25.7666C176.987 25.3555 177.126 25.0106 177.405 24.7321C177.683 24.4536 178.028 24.3143 178.439 24.3143C178.837 24.3143 179.175 24.4536 179.454 24.7321C179.732 25.0106 179.871 25.3555 179.871 25.7666C179.871 26.1777 179.732 26.5226 179.454 26.8011C179.175 27.0796 178.837 27.2188 178.439 27.2188Z" fill="white"/>
<path d="M161.04 32.487C161.04 31.9746 161.142 31.5285 161.347 31.1487C161.552 30.7629 161.835 30.4645 162.197 30.2535C162.565 30.0425 162.984 29.937 163.454 29.937C164.063 29.937 164.563 30.0847 164.955 30.3801C165.353 30.6755 165.615 31.0854 165.742 31.6099H164.856C164.771 31.3085 164.605 31.0703 164.358 30.8955C164.117 30.7207 163.816 30.6333 163.454 30.6333C162.984 30.6333 162.604 30.796 162.315 31.1216C162.025 31.4411 161.881 31.8962 161.881 32.487C161.881 33.0838 162.025 33.545 162.315 33.8705C162.604 34.1961 162.984 34.3589 163.454 34.3589C163.816 34.3589 164.117 34.2745 164.358 34.1057C164.599 33.9369 164.765 33.6957 164.856 33.3822H165.742C165.609 33.8886 165.344 34.2956 164.946 34.603C164.548 34.9044 164.051 35.0551 163.454 35.0551C162.984 35.0551 162.565 34.9496 162.197 34.7386C161.835 34.5276 161.552 34.2292 161.347 33.8434C161.142 33.4576 161.04 33.0055 161.04 32.487ZM166.532 32.478C166.532 31.9716 166.635 31.5285 166.84 31.1487C167.045 30.7629 167.325 30.4645 167.681 30.2535C168.042 30.0425 168.443 29.937 168.883 29.937C169.317 29.937 169.694 30.0304 170.014 30.2173C170.333 30.4042 170.571 30.6393 170.728 30.9226V30.0184H171.56V34.9738H170.728V34.0514C170.565 34.3408 170.321 34.5819 169.996 34.7748C169.676 34.9617 169.302 35.0551 168.874 35.0551C168.434 35.0551 168.036 34.9466 167.681 34.7296C167.325 34.5126 167.045 34.2081 166.84 33.8163C166.635 33.4244 166.532 32.9783 166.532 32.478ZM170.728 32.487C170.728 32.1133 170.653 31.7877 170.502 31.5104C170.351 31.2331 170.146 31.0221 169.887 30.8774C169.634 30.7267 169.354 30.6514 169.046 30.6514C168.739 30.6514 168.458 30.7237 168.205 30.8684C167.952 31.0131 167.75 31.2241 167.599 31.5014C167.449 31.7787 167.373 32.1042 167.373 32.478C167.373 32.8578 167.449 33.1893 167.599 33.4727C167.75 33.75 167.952 33.964 168.205 34.1147C168.458 34.2594 168.739 34.3317 169.046 34.3317C169.354 34.3317 169.634 34.2594 169.887 34.1147C170.146 33.964 170.351 33.75 170.502 33.4727C170.653 33.1893 170.728 32.8608 170.728 32.487ZM174.967 30.6966H173.927V34.9738H173.104V30.6966H172.462V30.0184H173.104V29.6657C173.104 29.1111 173.246 28.7072 173.529 28.454C173.819 28.1948 174.28 28.0652 174.913 28.0652V28.7524C174.551 28.7524 174.295 28.8247 174.144 28.9694C174 29.1081 173.927 29.3402 173.927 29.6657V30.0184H174.967V30.6966ZM180.448 32.3062C180.448 32.4629 180.439 32.6287 180.421 32.8035H176.46C176.49 33.2918 176.656 33.6746 176.957 33.9519C177.265 34.2232 177.636 34.3589 178.07 34.3589C178.425 34.3589 178.721 34.2775 178.956 34.1147C179.197 33.9459 179.366 33.7229 179.462 33.4455H180.348C180.216 33.9218 179.951 34.3106 179.553 34.612C179.155 34.9074 178.661 35.0551 178.07 35.0551C177.6 35.0551 177.178 34.9496 176.804 34.7386C176.436 34.5276 176.147 34.2292 175.936 33.8434C175.725 33.4516 175.619 32.9994 175.619 32.487C175.619 31.9746 175.722 31.5255 175.927 31.1397C176.132 30.7538 176.418 30.4584 176.786 30.2535C177.159 30.0425 177.587 29.937 178.07 29.937C178.54 29.937 178.956 30.0395 179.318 30.2444C179.679 30.4494 179.957 30.7327 180.15 31.0944C180.348 31.4501 180.448 31.854 180.448 32.3062ZM179.598 32.1344C179.598 31.8209 179.529 31.5526 179.39 31.3296C179.251 31.1005 179.061 30.9287 178.82 30.8141C178.585 30.6936 178.323 30.6333 178.034 30.6333C177.618 30.6333 177.262 30.7659 176.967 31.0311C176.677 31.2964 176.511 31.6641 176.469 32.1344H179.598Z" fill="white"/>
<defs>
<linearGradient id="paint0_linear_2_500" x1="35.0733" y1="7.92914" x2="35.0733" y2="32.2443" gradientUnits="userSpaceOnUse">
<stop stop-color="#4987E5"/>
<stop offset="1" stop-color="#2F49D1"/>
</linearGradient>
</defs>
</svg>
