<svg width="15" height="14" viewBox="0 0 15 14" fill="none" xmlns="http://www.w3.org/2000/svg">
<g clip-path="url(#clip0_526_61)">
<path d="M9.68745 7C9.12526 7 8.58167 6.74898 8.1562 6.29344C7.74249 5.8491 7.48983 5.25656 7.44526 4.62547C7.39768 3.95227 7.60303 3.3332 8.02331 2.88203C8.44358 2.43086 9.0312 2.1875 9.68745 2.1875C10.339 2.1875 10.9283 2.43523 11.3472 2.88531C11.7702 3.33977 11.9761 3.95773 11.9285 4.6252C11.8829 5.25711 11.6305 5.84937 11.2176 6.29316C10.7932 6.74898 10.2499 7 9.68745 7Z" fill="#4987E5"/>
<path d="M13.2922 11.8125H6.08306C5.96715 11.8131 5.85265 11.7871 5.74836 11.7366C5.64407 11.686 5.55277 11.6121 5.48149 11.5207C5.40589 11.4217 5.35368 11.3067 5.32877 11.1846C5.30386 11.0625 5.3069 10.9363 5.33767 10.8155C5.5679 9.89105 6.13829 9.12434 6.98704 8.59852C7.74036 8.13203 8.69931 7.875 9.68751 7.875C10.6951 7.875 11.6289 8.12109 12.3866 8.5873C13.2373 9.11039 13.8085 9.88148 14.0376 10.8172C14.068 10.9381 14.0707 11.0642 14.0455 11.1863C14.0203 11.3083 13.9679 11.4231 13.8922 11.5221C13.821 11.6131 13.7299 11.6866 13.6259 11.7369C13.5219 11.7872 13.4078 11.8131 13.2922 11.8125Z" fill="#4987E5"/>
<path d="M4.51954 7.10938C3.55731 7.10938 2.71129 6.21469 2.63282 5.1152C2.59399 4.55191 2.76954 4.03102 3.12501 3.64902C3.47665 3.27086 3.97266 3.0625 4.51954 3.0625C5.06641 3.0625 5.5586 3.27195 5.91215 3.6523C6.27036 4.0373 6.44536 4.55711 6.40434 5.11574C6.32586 6.21496 5.48012 7.10938 4.51954 7.10938Z" fill="#4987E5"/>
<path d="M6.31495 7.96931C5.83398 7.73416 5.20972 7.61658 4.51983 7.61658C3.71429 7.61658 2.93198 7.82658 2.31675 8.20775C1.61921 8.6406 1.14999 9.27087 0.960499 10.0319C0.932768 10.1413 0.930145 10.2556 0.952826 10.3662C0.975508 10.4768 1.02291 10.5809 1.09148 10.6706C1.15654 10.7541 1.23989 10.8216 1.33513 10.8679C1.43036 10.9142 1.53494 10.938 1.64081 10.9375H4.67597C4.7272 10.9375 4.7768 10.9195 4.81612 10.8867C4.85545 10.8538 4.88201 10.8082 4.89116 10.7578C4.89417 10.7406 4.898 10.7234 4.90237 10.7064C5.13425 9.77509 5.67757 8.98814 6.48038 8.41447C6.50991 8.39318 6.53366 8.36487 6.54948 8.33209C6.5653 8.2993 6.57269 8.26309 6.57098 8.22673C6.56927 8.19037 6.55851 8.15502 6.53968 8.12387C6.52085 8.09271 6.49455 8.06675 6.46316 8.04834C6.42023 8.02318 6.37101 7.99666 6.31495 7.96931Z" fill="#4987E5"/>
</g>
<defs>
<clipPath id="clip0_526_61">
<rect width="14" height="14" fill="white" transform="translate(0.5)"/>
</clipPath>
</defs>
</svg>
