<svg width="14" height="14" viewBox="0 0 14 14" fill="none" xmlns="http://www.w3.org/2000/svg">
<path d="M10.7735 13.1251C10.6814 13.1254 10.5915 13.0967 10.5167 13.043L7.00004 10.4935L3.48336 13.043C3.40823 13.0975 3.31771 13.1267 3.2249 13.1264C3.13209 13.126 3.04179 13.0962 2.96706 13.0411C2.89232 12.9861 2.83703 12.9087 2.80917 12.8202C2.78131 12.7317 2.78232 12.6366 2.81207 12.5486L4.18363 8.48618L0.628947 6.04849C0.55195 5.99575 0.493837 5.91976 0.463099 5.83164C0.432361 5.74352 0.430609 5.64788 0.458099 5.55869C0.485589 5.4695 0.540879 5.39144 0.615893 5.33591C0.690907 5.28038 0.781712 5.2503 0.875041 5.25005H5.26043L6.58387 1.1772C6.61238 1.08927 6.66801 1.01263 6.74277 0.95827C6.81754 0.903913 6.9076 0.874634 7.00004 0.874634C7.09248 0.874634 7.18254 0.903913 7.25731 0.95827C7.33207 1.01263 7.3877 1.08927 7.41621 1.1772L8.73965 5.25142H13.125C13.2185 5.25137 13.3095 5.28125 13.3847 5.33667C13.46 5.39209 13.5155 5.47014 13.5431 5.5594C13.5708 5.64866 13.5692 5.74443 13.5385 5.83268C13.5078 5.92094 13.4496 5.99705 13.3725 6.04986L9.81645 8.48618L11.1872 12.5476C11.2094 12.6133 11.2156 12.6834 11.2054 12.752C11.1952 12.8207 11.1688 12.8859 11.1283 12.9423C11.0879 12.9988 11.0347 13.0448 10.973 13.0765C10.9113 13.1083 10.8429 13.1249 10.7735 13.1251Z" fill="#F49816"/>
</svg>
